solid CaseTelevisorne
facet normal -4.067259349828699e-17 1.0 -6.846797761657212e-33
  outer loop
    vertex 3.0 4.999999999999994 20.0
    vertex 106.99999999999999 4.999999999999999 3.000000000000001
    vertex 3.0 4.999999999999994 3.0
  endloop
endfacet
facet normal -4.067259349828699e-17 1.0 -6.846797761657212e-33
  outer loop
    vertex 106.99999999999999 4.999999999999999 3.000000000000001
    vertex 3.0 4.999999999999994 20.0
    vertex 106.99999999999999 4.999999999999999 20.0
  endloop
endfacet
facet normal 3.959720431286287e-32 -1.0 -1.0071308866242493e-16
  outer loop
    vertex 106.99999999999999 206.99999999999997 10.000000000000043
    vertex 2.99999999999999 206.99999999999997 53.00000000000001
    vertex 2.999999999999998 206.99999999999997 10.000000000000002
  endloop
endfacet
facet normal 3.959720431286287e-32 -1.0 -1.0071308866242493e-16
  outer loop
    vertex 2.99999999999999 206.99999999999997 53.00000000000001
    vertex 106.99999999999999 206.99999999999997 10.000000000000043
    vertex 106.99999999999999 206.99999999999997 53.000000000000036
  endloop
endfacet
facet normal -0.0 -1.0 -1.0552929285370052e-16
  outer loop
    vertex 109.99999999999999 0.0 0.0
    vertex 108.99999999999999 0.0 0.9999999999999998
    vertex 0.0 0.0 0.0
  endloop
endfacet
facet normal -0.0 -1.0 -1.0552929285370052e-16
  outer loop
    vertex 108.99999999999999 0.0 0.9999999999999998
    vertex 109.99999999999999 0.0 0.0
    vertex 109.99999999999999 -5.639932965095795e-15 52.99999999999999
  endloop
endfacet
facet normal -0.0 -1.0 -1.0552929285370052e-16
  outer loop
    vertex 0.0 0.0 0.0
    vertex 108.99999999999999 0.0 0.9999999999999998
    vertex 98.99999999999997 0.0 0.9999999999999996
  endloop
endfacet
facet normal -0.0 -1.0 -1.0552929285370052e-16
  outer loop
    vertex 108.99999999999999 0.0 0.9999999999999998
    vertex 109.99999999999999 -5.639932965095795e-15 52.99999999999999
    vertex 108.99999999999999 0.0 11.0
  endloop
endfacet
facet normal -0.0 -1.0 -1.0552929285370052e-16
  outer loop
    vertex 108.99999999999999 0.0 11.0
    vertex 109.99999999999999 -5.639932965095795e-15 52.99999999999999
    vertex 98.99999999999997 0.0 11.0
  endloop
endfacet
facet normal -0.0 -1.0 -1.0552929285370052e-16
  outer loop
    vertex 98.99999999999997 0.0 11.0
    vertex 109.99999999999999 -5.639932965095795e-15 52.99999999999999
    vertex 11.000000000000002 0.0 11.0
  endloop
endfacet
facet normal -0.0 -1.0 -1.0552929285370052e-16
  outer loop
    vertex 11.000000000000002 0.0 11.0
    vertex 109.99999999999999 -5.639932965095795e-15 52.99999999999999
    vertex 0.9999999999999978 0.0 11.0
  endloop
endfacet
facet normal -0.0 -1.0 -1.0552929285370052e-16
  outer loop
    vertex 0.0 0.0 0.0
    vertex 0.9999999999999978 0.0 1.0000000000000009
    vertex -1.0282279141949707e-14 -5.639932965095795e-15 52.99999999999999
  endloop
endfacet
facet normal -0.0 -1.0 -1.0552929285370052e-16
  outer loop
    vertex 0.9999999999999978 0.0 1.0000000000000009
    vertex 0.0 0.0 0.0
    vertex 11.000000000000002 0.0 1.0000000000000004
  endloop
endfacet
facet normal -0.0 -1.0 -1.0552929285370052e-16
  outer loop
    vertex 11.000000000000002 0.0 1.0000000000000004
    vertex 0.0 0.0 0.0
    vertex 98.99999999999997 0.0 0.9999999999999996
  endloop
endfacet
facet normal -0.0 -1.0 -1.0552929285370052e-16
  outer loop
    vertex -1.0282279141949707e-14 -5.639932965095795e-15 52.99999999999999
    vertex 0.9999999999999978 0.0 1.0000000000000009
    vertex 0.9999999999999978 0.0 11.0
  endloop
endfacet
facet normal -0.0 -1.0 -1.0552929285370052e-16
  outer loop
    vertex -1.0282279141949707e-14 -5.639932965095795e-15 52.99999999999999
    vertex 0.9999999999999978 0.0 11.0
    vertex 109.99999999999999 -5.639932965095795e-15 52.99999999999999
  endloop
endfacet
facet normal -0.0 -1.0 -1.0552929285370052e-16
  outer loop
    vertex 98.99999999999997 0.0 11.0
    vertex 11.000000000000002 0.0 1.0000000000000004
    vertex 98.99999999999997 0.0 0.9999999999999996
  endloop
endfacet
facet normal -0.0 -1.0 -1.0552929285370052e-16
  outer loop
    vertex 11.000000000000002 0.0 1.0000000000000004
    vertex 98.99999999999997 0.0 11.0
    vertex 11.000000000000002 0.0 11.0
  endloop
endfacet
facet normal -1.0 0.0 -2.0146501362979186e-16
  outer loop
    vertex -1.0282279141949707e-14 209.99999999999997 52.99999999999999
    vertex 0.0 0.0 0.0
    vertex -1.0282279141949707e-14 -5.639932965095795e-15 52.99999999999999
  endloop
endfacet
facet normal -1.0 0.0 -2.0146501362979186e-16
  outer loop
    vertex 0.0 0.0 0.0
    vertex -1.0282279141949707e-14 209.99999999999997 52.99999999999999
    vertex 0.0 209.99999999999997 0.0
  endloop
endfacet
facet normal 1.0 -4.2520920846226133e-32 2.0146501362979186e-16
  outer loop
    vertex 109.99999999999999 0.0 0.0
    vertex 109.99999999999999 209.99999999999997 53.000000000000036
    vertex 109.99999999999999 -5.639932965095795e-15 52.99999999999999
  endloop
endfacet
facet normal 1.0 -4.2520920846226133e-32 2.0146501362979186e-16
  outer loop
    vertex 109.99999999999999 209.99999999999997 53.000000000000036
    vertex 109.99999999999999 0.0 0.0
    vertex 109.99999999999999 209.99999999999997 4.4322302998554204e-14
  endloop
endfacet
facet normal -1.0 0.0 0.0
  outer loop
    vertex 106.99999999999999 206.99999999999997 53.000000000000036
    vertex 106.99999999999999 3.0 20.0
    vertex 106.99999999999999 2.9999999999999947 52.99999999999999
  endloop
endfacet
facet normal -1.0 0.0 0.0
  outer loop
    vertex 106.99999999999999 3.0 20.0
    vertex 106.99999999999999 206.99999999999997 53.000000000000036
    vertex 106.99999999999999 4.999999999999999 20.0
  endloop
endfacet
facet normal -1.0 0.0 0.0
  outer loop
    vertex 106.99999999999999 4.999999999999999 20.0
    vertex 106.99999999999999 206.99999999999997 53.000000000000036
    vertex 106.99999999999999 4.999999999999999 3.000000000000001
  endloop
endfacet
facet normal -1.0 0.0 0.0
  outer loop
    vertex 106.99999999999999 4.999999999999999 3.000000000000001
    vertex 106.99999999999999 206.99999999999997 53.000000000000036
    vertex 106.99999999999999 108.99999999999999 10.00000000000001
  endloop
endfacet
facet normal -1.0 0.0 0.0
  outer loop
    vertex 106.99999999999999 108.99999999999999 10.00000000000001
    vertex 106.99999999999999 206.99999999999997 53.000000000000036
    vertex 106.99999999999999 206.99999999999997 10.000000000000043
  endloop
endfacet
facet normal -1.0 0.0 0.0
  outer loop
    vertex 106.99999999999999 108.99999999999999 3.0000000000000098
    vertex 106.99999999999999 4.999999999999999 3.000000000000001
    vertex 106.99999999999999 108.99999999999999 10.00000000000001
  endloop
endfacet
facet normal -4.252092084622615e-32 1.0 1.0552929285370052e-16
  outer loop
    vertex -1.0282279141949707e-14 209.99999999999997 52.99999999999999
    vertex 109.99999999999999 209.99999999999997 4.4322302998554204e-14
    vertex 0.0 209.99999999999997 0.0
  endloop
endfacet
facet normal -4.252092084622615e-32 1.0 1.0552929285370052e-16
  outer loop
    vertex 109.99999999999999 209.99999999999997 4.4322302998554204e-14
    vertex -1.0282279141949707e-14 209.99999999999997 52.99999999999999
    vertex 109.99999999999999 209.99999999999997 53.000000000000036
  endloop
endfacet
facet normal -2.5863142285824413e-17 -0.4065622681231998 -0.913623074434156
  outer loop
    vertex 108.99999999999999 0.0 0.9999999999999998
    vertex 103.45 -9.999999999999996 5.450000000000002
    vertex 98.99999999999997 0.0 0.9999999999999996
  endloop
endfacet
facet normal -2.5863142285824413e-17 -0.4065622681231998 -0.913623074434156
  outer loop
    vertex 103.45 -9.999999999999996 5.450000000000002
    vertex 108.99999999999999 0.0 0.9999999999999998
    vertex 104.55000000000003 -9.999999999999996 5.450000000000002
  endloop
endfacet
facet normal -2.6437185773886546e-16 -1.9423238527753378e-16 1.0
  outer loop
    vertex 106.99999999999999 108.99999999999999 10.00000000000001
    vertex 4.999999999999998 110.99999999999997 9.999999999999993
    vertex 2.9999999999999982 108.99999999999999 9.999999999999996
  endloop
endfacet
facet normal -2.6437185773886546e-16 -1.9423238527753378e-16 1.0
  outer loop
    vertex 4.999999999999998 110.99999999999997 9.999999999999993
    vertex 106.99999999999999 108.99999999999999 10.00000000000001
    vertex 104.99999999999999 110.99999999999997 10.000000000000043
  endloop
endfacet
facet normal -2.6437185773886546e-16 -1.9423238527753378e-16 1.0
  outer loop
    vertex 104.99999999999999 110.99999999999997 10.000000000000043
    vertex 106.99999999999999 108.99999999999999 10.00000000000001
    vertex 104.99999999999999 204.99999999999997 10.000000000000004
  endloop
endfacet
facet normal -2.6437185773886546e-16 -1.9423238527753378e-16 1.0
  outer loop
    vertex 2.999999999999998 206.99999999999997 10.000000000000002
    vertex 4.999999999999998 204.99999999999997 10.000000000000004
    vertex 106.99999999999999 206.99999999999997 10.000000000000043
  endloop
endfacet
facet normal -2.6437185773886546e-16 -1.9423238527753378e-16 1.0
  outer loop
    vertex 4.999999999999998 204.99999999999997 10.000000000000004
    vertex 2.999999999999998 206.99999999999997 10.000000000000002
    vertex 2.9999999999999982 108.99999999999999 9.999999999999996
  endloop
endfacet
facet normal -2.6437185773886546e-16 -1.9423238527753378e-16 1.0
  outer loop
    vertex 4.999999999999998 204.99999999999997 10.000000000000004
    vertex 2.9999999999999982 108.99999999999999 9.999999999999996
    vertex 4.999999999999998 110.99999999999997 9.999999999999993
  endloop
endfacet
facet normal -2.6437185773886546e-16 -1.9423238527753378e-16 1.0
  outer loop
    vertex 106.99999999999999 206.99999999999997 10.000000000000043
    vertex 4.999999999999998 204.99999999999997 10.000000000000004
    vertex 104.99999999999999 204.99999999999997 10.000000000000004
  endloop
endfacet
facet normal -2.6437185773886546e-16 -1.9423238527753378e-16 1.0
  outer loop
    vertex 106.99999999999999 206.99999999999997 10.000000000000043
    vertex 104.99999999999999 204.99999999999997 10.000000000000004
    vertex 106.99999999999999 108.99999999999999 10.00000000000001
  endloop
endfacet
facet normal 1.4548017535775156e-17 -0.40656226812319957 0.9136230744341561
  outer loop
    vertex 103.45 -10.0 6.550000000000001
    vertex 108.99999999999999 0.0 11.0
    vertex 98.99999999999997 0.0 11.0
  endloop
endfacet
facet normal 1.4548017535775156e-17 -0.40656226812319957 0.9136230744341561
  outer loop
    vertex 108.99999999999999 0.0 11.0
    vertex 103.45 -10.0 6.550000000000001
    vertex 104.55000000000003 -10.0 6.550000000000001
  endloop
endfacet
facet normal -1.9227044199190212e-16 -1.0071308866242493e-16 1.0
  outer loop
    vertex -1.0282279141949707e-14 -5.639932965095795e-15 52.99999999999999
    vertex 2.9999999999999902 2.9999999999999947 52.99999999999999
    vertex -1.0282279141949707e-14 209.99999999999997 52.99999999999999
  endloop
endfacet
facet normal -1.9227044199190212e-16 -1.0071308866242493e-16 1.0
  outer loop
    vertex 2.9999999999999902 2.9999999999999947 52.99999999999999
    vertex -1.0282279141949707e-14 -5.639932965095795e-15 52.99999999999999
    vertex 109.99999999999999 -5.639932965095795e-15 52.99999999999999
  endloop
endfacet
facet normal -1.9227044199190212e-16 -1.0071308866242493e-16 1.0
  outer loop
    vertex -1.0282279141949707e-14 209.99999999999997 52.99999999999999
    vertex 2.9999999999999902 2.9999999999999947 52.99999999999999
    vertex 2.99999999999999 206.99999999999997 53.00000000000001
  endloop
endfacet
facet normal -1.9227044199190212e-16 -1.0071308866242493e-16 1.0
  outer loop
    vertex 2.9999999999999902 2.9999999999999947 52.99999999999999
    vertex 109.99999999999999 -5.639932965095795e-15 52.99999999999999
    vertex 106.99999999999999 2.9999999999999947 52.99999999999999
  endloop
endfacet
facet normal -1.9227044199190212e-16 -1.0071308866242493e-16 1.0
  outer loop
    vertex 106.99999999999999 2.9999999999999947 52.99999999999999
    vertex 109.99999999999999 -5.639932965095795e-15 52.99999999999999
    vertex 106.99999999999999 206.99999999999997 53.000000000000036
  endloop
endfacet
facet normal -1.9227044199190212e-16 -1.0071308866242493e-16 1.0
  outer loop
    vertex 2.99999999999999 206.99999999999997 53.00000000000001
    vertex 109.99999999999999 209.99999999999997 53.000000000000036
    vertex -1.0282279141949707e-14 209.99999999999997 52.99999999999999
  endloop
endfacet
facet normal -1.9227044199190212e-16 -1.0071308866242493e-16 1.0
  outer loop
    vertex 109.99999999999999 209.99999999999997 53.000000000000036
    vertex 2.99999999999999 206.99999999999997 53.00000000000001
    vertex 106.99999999999999 206.99999999999997 53.000000000000036
  endloop
endfacet
facet normal -1.9227044199190212e-16 -1.0071308866242493e-16 1.0
  outer loop
    vertex 109.99999999999999 209.99999999999997 53.000000000000036
    vertex 106.99999999999999 206.99999999999997 53.000000000000036
    vertex 109.99999999999999 -5.639932965095795e-15 52.99999999999999
  endloop
endfacet
facet normal 1.0 -2.5908134120477695e-32 2.467470672229411e-16
  outer loop
    vertex 5.000000000000002 111.0 -4.511946372076636e-14
    vertex 4.999999999999998 204.99999999999997 10.000000000000004
    vertex 4.999999999999998 110.99999999999997 9.999999999999993
  endloop
endfacet
facet normal 1.0 -2.5908134120477695e-32 2.467470672229411e-16
  outer loop
    vertex 4.999999999999998 204.99999999999997 10.000000000000004
    vertex 5.000000000000002 111.0 -4.511946372076636e-14
    vertex 5.000000000000002 204.99999999999997 -4.511946372076636e-14
  endloop
endfacet
facet normal 1.0 2.755360013884612e-18 1.8984145043920485e-16
  outer loop
    vertex 3.0 108.99999999999999 2.9999999999999964
    vertex 3.0 4.999999999999994 20.0
    vertex 3.0 4.999999999999994 3.0
  endloop
endfacet
facet normal 1.0 2.755360013884612e-18 1.8984145043920485e-16
  outer loop
    vertex 2.9999999999999996 3.0 20.0
    vertex 2.99999999999999 206.99999999999997 53.00000000000001
    vertex 2.9999999999999902 2.9999999999999947 52.99999999999999
  endloop
endfacet
facet normal 1.0 2.755360013884612e-18 1.8984145043920485e-16
  outer loop
    vertex 2.99999999999999 206.99999999999997 53.00000000000001
    vertex 2.9999999999999996 3.0 20.0
    vertex 3.0 4.999999999999994 20.0
  endloop
endfacet
facet normal 1.0 2.755360013884612e-18 1.8984145043920485e-16
  outer loop
    vertex 2.99999999999999 206.99999999999997 53.00000000000001
    vertex 3.0 4.999999999999994 20.0
    vertex 2.9999999999999982 108.99999999999999 9.999999999999996
  endloop
endfacet
facet normal 1.0 2.755360013884612e-18 1.8984145043920485e-16
  outer loop
    vertex 2.9999999999999982 108.99999999999999 9.999999999999996
    vertex 3.0 4.999999999999994 20.0
    vertex 3.0 108.99999999999999 2.9999999999999964
  endloop
endfacet
facet normal 1.0 2.755360013884612e-18 1.8984145043920485e-16
  outer loop
    vertex 2.99999999999999 206.99999999999997 53.00000000000001
    vertex 2.9999999999999982 108.99999999999999 9.999999999999996
    vertex 2.999999999999998 206.99999999999997 10.000000000000002
  endloop
endfacet
facet normal 7.77244023614331e-32 1.0 -1.5749812801464318e-16
  outer loop
    vertex 4.999999999999998 110.99999999999997 9.999999999999993
    vertex 104.99999999999997 111.0 0.0
    vertex 5.000000000000002 111.0 -4.511946372076636e-14
  endloop
endfacet
facet normal 7.77244023614331e-32 1.0 -1.5749812801464318e-16
  outer loop
    vertex 104.99999999999997 111.0 0.0
    vertex 4.999999999999998 110.99999999999997 9.999999999999993
    vertex 104.99999999999999 110.99999999999997 10.000000000000043
  endloop
endfacet
facet normal -0.9136230744341552 -0.40656226812320156 -5.359530071339467e-17
  outer loop
    vertex 98.99999999999997 0.0 11.0
    vertex 103.45 -9.999999999999996 5.450000000000002
    vertex 103.45 -10.0 6.550000000000001
  endloop
endfacet
facet normal -0.9136230744341552 -0.40656226812320156 -5.359530071339467e-17
  outer loop
    vertex 103.45 -9.999999999999996 5.450000000000002
    vertex 98.99999999999997 0.0 11.0
    vertex 98.99999999999997 0.0 0.9999999999999996
  endloop
endfacet
facet normal -1.0 -1.0363253648191078e-31 -2.467470672229411e-16
  outer loop
    vertex 104.99999999999999 204.99999999999997 10.000000000000004
    vertex 104.99999999999997 111.0 0.0
    vertex 104.99999999999999 110.99999999999997 10.000000000000043
  endloop
endfacet
facet normal -1.0 -1.0363253648191078e-31 -2.467470672229411e-16
  outer loop
    vertex 104.99999999999997 111.0 0.0
    vertex 104.99999999999999 204.99999999999997 10.000000000000004
    vertex 104.99999999999997 204.99999999999997 -4.511946372076636e-14
  endloop
endfacet
facet normal 0.0 -1.0 0.0
  outer loop
    vertex 106.99999999999999 108.99999999999999 3.0000000000000098
    vertex 2.9999999999999982 108.99999999999999 9.999999999999996
    vertex 3.0 108.99999999999999 2.9999999999999964
  endloop
endfacet
facet normal 0.0 -1.0 0.0
  outer loop
    vertex 2.9999999999999982 108.99999999999999 9.999999999999996
    vertex 106.99999999999999 108.99999999999999 3.0000000000000098
    vertex 106.99999999999999 108.99999999999999 10.00000000000001
  endloop
endfacet
facet normal 0.0 -1.0 1.5749812801464318e-16
  outer loop
    vertex 104.99999999999999 204.99999999999997 10.000000000000004
    vertex 5.000000000000002 204.99999999999997 -4.511946372076636e-14
    vertex 104.99999999999997 204.99999999999997 -4.511946372076636e-14
  endloop
endfacet
facet normal 0.0 -1.0 1.5749812801464318e-16
  outer loop
    vertex 5.000000000000002 204.99999999999997 -4.511946372076636e-14
    vertex 104.99999999999999 204.99999999999997 10.000000000000004
    vertex 4.999999999999998 204.99999999999997 10.000000000000004
  endloop
endfacet
facet normal -6.7787655830478306e-18 6.571087784677729e-33 1.0
  outer loop
    vertex 106.99999999999999 3.0 20.0
    vertex 3.0 4.999999999999994 20.0
    vertex 2.9999999999999996 3.0 20.0
  endloop
endfacet
facet normal -6.7787655830478306e-18 6.571087784677729e-33 1.0
  outer loop
    vertex 3.0 4.999999999999994 20.0
    vertex 106.99999999999999 3.0 20.0
    vertex 106.99999999999999 4.999999999999999 20.0
  endloop
endfacet
facet normal -2.4871995289326677e-16 -1.0 -6.595690688612111e-15
  outer loop
    vertex 104.55000000000003 -10.0 6.550000000000001
    vertex 103.45 -9.999999999999996 5.450000000000002
    vertex 104.55000000000003 -9.999999999999996 5.450000000000002
  endloop
endfacet
facet normal -2.4871995289326677e-16 -1.0 -6.595690688612111e-15
  outer loop
    vertex 103.45 -9.999999999999996 5.450000000000002
    vertex 104.55000000000003 -10.0 6.550000000000001
    vertex 103.45 -10.0 6.550000000000001
  endloop
endfacet
facet normal 0.9136230744341575 -0.4065622681231964 -5.465609365870871e-17
  outer loop
    vertex 104.55000000000003 -9.999999999999996 5.450000000000002
    vertex 108.99999999999999 0.0 11.0
    vertex 104.55000000000003 -10.0 6.550000000000001
  endloop
endfacet
facet normal 0.9136230744341575 -0.4065622681231964 -5.465609365870871e-17
  outer loop
    vertex 108.99999999999999 0.0 11.0
    vertex 104.55000000000003 -9.999999999999996 5.450000000000002
    vertex 108.99999999999999 0.0 0.9999999999999998
  endloop
endfacet
facet normal -4.3644052607325496e-17 -0.40656226812319934 0.9136230744341564
  outer loop
    vertex 5.449999999999989 -10.000000000000002 6.5500000000000025
    vertex 11.000000000000002 0.0 11.0
    vertex 0.9999999999999978 0.0 11.0
  endloop
endfacet
facet normal -4.3644052607325496e-17 -0.40656226812319934 0.9136230744341564
  outer loop
    vertex 11.000000000000002 0.0 11.0
    vertex 5.449999999999989 -10.000000000000002 6.5500000000000025
    vertex 6.549999999999986 -10.000000000000002 6.5500000000000025
  endloop
endfacet
facet normal 0.9136230744341556 -0.4065622681232008 1.7881938221055725e-17
  outer loop
    vertex 6.549999999999986 -9.999999999999996 5.450000000000005
    vertex 11.000000000000002 0.0 11.0
    vertex 6.549999999999986 -10.000000000000002 6.5500000000000025
  endloop
endfacet
facet normal 0.9136230744341556 -0.4065622681232008 1.7881938221055725e-17
  outer loop
    vertex 11.000000000000002 0.0 11.0
    vertex 6.549999999999986 -9.999999999999996 5.450000000000005
    vertex 11.000000000000002 0.0 1.0000000000000004
  endloop
endfacet
facet normal -0.9136230744341566 -0.4065622681231989 -4.8089280187700136e-17
  outer loop
    vertex 0.9999999999999978 0.0 11.0
    vertex 5.449999999999989 -9.999999999999996 5.450000000000005
    vertex 5.449999999999989 -10.000000000000002 6.5500000000000025
  endloop
endfacet
facet normal -0.9136230744341566 -0.4065622681231989 -4.8089280187700136e-17
  outer loop
    vertex 5.449999999999989 -9.999999999999996 5.450000000000005
    vertex 0.9999999999999978 0.0 11.0
    vertex 0.9999999999999978 0.0 1.0000000000000009
  endloop
endfacet
facet normal -7.1535833840004046e-34 1.0 1.0552929285370051e-16
  outer loop
    vertex 2.9999999999999902 2.9999999999999947 52.99999999999999
    vertex 106.99999999999999 3.0 20.0
    vertex 2.9999999999999996 3.0 20.0
  endloop
endfacet
facet normal -7.1535833840004046e-34 1.0 1.0552929285370051e-16
  outer loop
    vertex 106.99999999999999 3.0 20.0
    vertex 2.9999999999999902 2.9999999999999947 52.99999999999999
    vertex 106.99999999999999 2.9999999999999947 52.99999999999999
  endloop
endfacet
facet normal -7.087107153712473e-17 -0.4065622681232 -0.913623074434156
  outer loop
    vertex 11.000000000000002 0.0 1.0000000000000004
    vertex 5.449999999999989 -9.999999999999996 5.450000000000005
    vertex 0.9999999999999978 0.0 1.0000000000000009
  endloop
endfacet
facet normal -7.087107153712473e-17 -0.4065622681232 -0.913623074434156
  outer loop
    vertex 5.449999999999989 -9.999999999999996 5.450000000000005
    vertex 11.000000000000002 0.0 1.0000000000000004
    vertex 6.549999999999986 -9.999999999999996 5.450000000000005
  endloop
endfacet
facet normal -6.609296443471635e-17 -2.5420370936429355e-17 1.0
  outer loop
    vertex 106.99999999999999 4.999999999999999 3.000000000000001
    vertex 3.0 108.99999999999999 2.9999999999999964
    vertex 3.0 4.999999999999994 3.0
  endloop
endfacet
facet normal -6.609296443471635e-17 -2.5420370936429355e-17 1.0
  outer loop
    vertex 3.0 108.99999999999999 2.9999999999999964
    vertex 106.99999999999999 4.999999999999999 3.000000000000001
    vertex 106.99999999999999 108.99999999999999 3.0000000000000098
  endloop
endfacet
facet normal 2.0146501362979183e-16 1.0552929285370051e-16 -1.0
  outer loop
    vertex 0.0 209.99999999999997 0.0
    vertex 5.000000000000002 204.99999999999997 -4.511946372076636e-14
    vertex 0.0 0.0 0.0
  endloop
endfacet
facet normal 2.0146501362979183e-16 1.0552929285370051e-16 -1.0
  outer loop
    vertex 5.000000000000002 204.99999999999997 -4.511946372076636e-14
    vertex 0.0 209.99999999999997 0.0
    vertex 109.99999999999999 209.99999999999997 4.4322302998554204e-14
  endloop
endfacet
facet normal 2.0146501362979183e-16 1.0552929285370051e-16 -1.0
  outer loop
    vertex 5.000000000000002 204.99999999999997 -4.511946372076636e-14
    vertex 109.99999999999999 209.99999999999997 4.4322302998554204e-14
    vertex 104.99999999999997 204.99999999999997 -4.511946372076636e-14
  endloop
endfacet
facet normal 2.0146501362979183e-16 1.0552929285370051e-16 -1.0
  outer loop
    vertex 104.99999999999997 204.99999999999997 -4.511946372076636e-14
    vertex 109.99999999999999 209.99999999999997 4.4322302998554204e-14
    vertex 104.99999999999997 111.0 0.0
  endloop
endfacet
facet normal 2.0146501362979183e-16 1.0552929285370051e-16 -1.0
  outer loop
    vertex 0.0 0.0 0.0
    vertex 5.000000000000002 111.0 -4.511946372076636e-14
    vertex 109.99999999999999 0.0 0.0
  endloop
endfacet
facet normal 2.0146501362979183e-16 1.0552929285370051e-16 -1.0
  outer loop
    vertex 5.000000000000002 111.0 -4.511946372076636e-14
    vertex 0.0 0.0 0.0
    vertex 5.000000000000002 204.99999999999997 -4.511946372076636e-14
  endloop
endfacet
facet normal 2.0146501362979183e-16 1.0552929285370051e-16 -1.0
  outer loop
    vertex 109.99999999999999 0.0 0.0
    vertex 5.000000000000002 111.0 -4.511946372076636e-14
    vertex 104.99999999999997 111.0 0.0
  endloop
endfacet
facet normal 2.0146501362979183e-16 1.0552929285370051e-16 -1.0
  outer loop
    vertex 109.99999999999999 0.0 0.0
    vertex 104.99999999999997 111.0 0.0
    vertex 109.99999999999999 209.99999999999997 4.4322302998554204e-14
  endloop
endfacet
facet normal -2.4871995289326657e-16 -1.0 -6.595690688612106e-15
  outer loop
    vertex 6.549999999999986 -10.000000000000002 6.5500000000000025
    vertex 5.449999999999989 -9.999999999999996 5.450000000000005
    vertex 6.549999999999986 -9.999999999999996 5.450000000000005
  endloop
endfacet
facet normal -2.4871995289326657e-16 -1.0 -6.595690688612106e-15
  outer loop
    vertex 5.449999999999989 -9.999999999999996 5.450000000000005
    vertex 6.549999999999986 -10.000000000000002 6.5500000000000025
    vertex 5.449999999999989 -10.000000000000002 6.5500000000000025
  endloop
endfacet
endsolid CaseTelevisorne
