solid CaseTelevisorne
facet normal 1.6582136844623068e-31 -1.0 -5.3713647286626596e-17
  outer loop
    vertex 175.51850800000005 7.0097969999999945 53.00000000000001
    vertex 176.51850799999997 7.009797000000003 11.000000000000025
    vertex 285.51850800000005 7.0097969999999945 52.99999999999982
  endloop
endfacet
facet normal 1.6582136844623068e-31 -1.0 -5.3713647286626596e-17
  outer loop
    vertex 176.51850799999997 7.009797000000003 11.000000000000025
    vertex 175.51850800000005 7.0097969999999945 53.00000000000001
    vertex 175.51850799999997 7.009796999999998 0.0
  endloop
endfacet
facet normal 1.6582136844623068e-31 -1.0 -5.3713647286626596e-17
  outer loop
    vertex 176.51850799999997 7.009797000000003 11.000000000000025
    vertex 175.51850799999997 7.009796999999998 0.0
    vertex 176.51850799999997 7.009796999999998 1.0000000000000433
  endloop
endfacet
facet normal 1.6582136844623068e-31 -1.0 -5.3713647286626596e-17
  outer loop
    vertex 176.51850799999997 7.009796999999998 1.0000000000000433
    vertex 175.51850799999997 7.009796999999998 0.0
    vertex 186.51850799999997 7.009796999999998 0.9999999999999756
  endloop
endfacet
facet normal 1.6582136844623068e-31 -1.0 -5.3713647286626596e-17
  outer loop
    vertex 186.51850799999997 7.009796999999998 0.9999999999999756
    vertex 175.51850799999997 7.009796999999998 0.0
    vertex 284.51850799999994 7.009796999999998 0.9999999999998177
  endloop
endfacet
facet normal 1.6582136844623068e-31 -1.0 -5.3713647286626596e-17
  outer loop
    vertex 285.51850800000005 7.0097969999999945 52.99999999999982
    vertex 284.51850799999994 7.009797000000003 10.999999999999822
    vertex 285.51850799999994 7.009796999999998 -1.8047785488306544e-13
  endloop
endfacet
facet normal 1.6582136844623068e-31 -1.0 -5.3713647286626596e-17
  outer loop
    vertex 284.51850799999994 7.009797000000003 10.999999999999822
    vertex 285.51850800000005 7.0097969999999945 52.99999999999982
    vertex 186.51850799999997 7.009797000000003 11.000000000000009
  endloop
endfacet
facet normal 1.6582136844623068e-31 -1.0 -5.3713647286626596e-17
  outer loop
    vertex 186.51850799999997 7.009797000000003 11.000000000000009
    vertex 285.51850800000005 7.0097969999999945 52.99999999999982
    vertex 176.51850799999997 7.009797000000003 11.000000000000025
  endloop
endfacet
facet normal 1.6582136844623068e-31 -1.0 -5.3713647286626596e-17
  outer loop
    vertex 284.51850799999994 7.009797000000003 10.999999999999822
    vertex 186.51850799999997 7.009797000000003 11.000000000000009
    vertex 274.518508 7.009797000000005 10.999999999999838
  endloop
endfacet
facet normal 1.6582136844623068e-31 -1.0 -5.3713647286626596e-17
  outer loop
    vertex 285.51850799999994 7.009796999999998 -1.8047785488306544e-13
    vertex 284.51850799999994 7.009797000000003 10.999999999999822
    vertex 284.51850799999994 7.009796999999998 0.9999999999998177
  endloop
endfacet
facet normal 1.6582136844623068e-31 -1.0 -5.3713647286626596e-17
  outer loop
    vertex 285.51850799999994 7.009796999999998 -1.8047785488306544e-13
    vertex 284.51850799999994 7.009796999999998 0.9999999999998177
    vertex 175.51850799999997 7.009796999999998 0.0
  endloop
endfacet
facet normal 1.6582136844623068e-31 -1.0 -5.3713647286626596e-17
  outer loop
    vertex 186.51850799999997 7.009796999999998 0.9999999999999756
    vertex 274.518508 7.009797000000005 10.999999999999838
    vertex 186.51850799999997 7.009797000000003 11.000000000000009
  endloop
endfacet
facet normal 1.6582136844623068e-31 -1.0 -5.3713647286626596e-17
  outer loop
    vertex 274.518508 7.009797000000005 10.999999999999838
    vertex 186.51850799999997 7.009796999999998 0.9999999999999756
    vertex 274.518508 7.009796999999998 0.9999999999998853
  endloop
endfacet
facet normal 1.6582136844623068e-31 -1.0 -5.3713647286626596e-17
  outer loop
    vertex 274.518508 7.009796999999998 0.9999999999998853
    vertex 186.51850799999997 7.009796999999998 0.9999999999999756
    vertex 284.51850799999994 7.009796999999998 0.9999999999998177
  endloop
endfacet
facet normal -1.0 -2.537817071786866e-31 1.5350347255930914e-15
  outer loop
    vertex 175.51850800000005 7.0097969999999945 53.00000000000001
    vertex 175.51850799999997 217.009797 0.0
    vertex 175.51850799999997 7.009796999999998 0.0
  endloop
endfacet
facet normal -1.0 -2.537817071786866e-31 1.5350347255930914e-15
  outer loop
    vertex 175.51850799999997 217.009797 0.0
    vertex 175.51850800000005 7.0097969999999945 53.00000000000001
    vertex 175.51850800000005 217.009797 53.00000000000001
  endloop
endfacet
facet normal -1.5480531862778073e-31 1.0 5.3713647286626596e-17
  outer loop
    vertex 285.51850799999994 217.009797 -1.5791812302268225e-13
    vertex 175.51850800000005 217.009797 53.00000000000001
    vertex 285.51850800000005 217.009797 52.999999999999844
  endloop
endfacet
facet normal -1.5480531862778073e-31 1.0 5.3713647286626596e-17
  outer loop
    vertex 175.51850800000005 217.009797 53.00000000000001
    vertex 285.51850799999994 217.009797 -1.5791812302268225e-13
    vertex 175.51850799999997 217.009797 0.0
  endloop
endfacet
facet normal -1.422663700772294e-15 -0.4838622505389816 -0.875144172410096
  outer loop
    vertex 280.64824769255216 0.009797000000000755 4.87026030744747
    vertex 274.518508 7.009796999999998 0.9999999999998853
    vertex 284.51850799999994 7.009796999999998 0.9999999999998177
  endloop
endfacet
facet normal -1.422663700772294e-15 -0.4838622505389816 -0.875144172410096
  outer loop
    vertex 274.518508 7.009796999999998 0.9999999999998853
    vertex 280.64824769255216 0.009797000000000755 4.87026030744747
    vertex 278.3887683074477 0.009797000000000755 4.870260307447425
  endloop
endfacet
facet normal 0.8751441724100835 -0.48386225053900445 -1.4851497747755209e-15
  outer loop
    vertex 284.51850799999994 7.009796999999998 0.9999999999998177
    vertex 280.64824769255216 0.009797000000000514 7.129739692551741
    vertex 280.64824769255216 0.009797000000000755 4.87026030744747
  endloop
endfacet
facet normal 0.8751441724100835 -0.48386225053900445 -1.4851497747755209e-15
  outer loop
    vertex 280.64824769255216 0.009797000000000514 7.129739692551741
    vertex 284.51850799999994 7.009796999999998 0.9999999999998177
    vertex 284.51850799999994 7.009797000000003 10.999999999999822
  endloop
endfacet
facet normal -0.8751441724100889 -0.48386225053899434 1.5180009321113865e-15
  outer loop
    vertex 278.3887683074477 0.009797000000001922 7.129739692551696
    vertex 274.518508 7.009796999999998 0.9999999999998853
    vertex 278.3887683074477 0.009797000000000755 4.870260307447425
  endloop
endfacet
facet normal -0.8751441724100889 -0.48386225053899434 1.5180009321113865e-15
  outer loop
    vertex 274.518508 7.009796999999998 0.9999999999998853
    vertex 278.3887683074477 0.009797000000001922 7.129739692551696
    vertex 274.518508 7.009797000000005 10.999999999999838
  endloop
endfacet
facet normal 1.3292368563607313e-15 -0.4838622505390334 0.8751441724100673
  outer loop
    vertex 274.518508 7.009797000000005 10.999999999999838
    vertex 280.64824769255216 0.009797000000000514 7.129739692551741
    vertex 284.51850799999994 7.009797000000003 10.999999999999822
  endloop
endfacet
facet normal 1.3292368563607313e-15 -0.4838622505390334 0.8751441724100673
  outer loop
    vertex 280.64824769255216 0.009797000000000514 7.129739692551741
    vertex 274.518508 7.009797000000005 10.999999999999838
    vertex 278.3887683074477 0.009797000000001922 7.129739692551696
  endloop
endfacet
facet normal -1.5350347255930914e-15 5.3713647286626596e-17 -1.0
  outer loop
    vertex 175.51850799999997 7.009796999999998 0.0
    vertex 285.51850799999994 217.009797 -1.5791812302268225e-13
    vertex 285.51850799999994 7.009796999999998 -1.8047785488306544e-13
  endloop
endfacet
facet normal -1.5350347255930914e-15 5.3713647286626596e-17 -1.0
  outer loop
    vertex 285.51850799999994 217.009797 -1.5791812302268225e-13
    vertex 175.51850799999997 7.009796999999998 0.0
    vertex 175.51850799999997 217.009797 0.0
  endloop
endfacet
facet normal -5.291588104000749e-16 -1.0 2.9135412452719884e-15
  outer loop
    vertex 278.3887683074477 0.009797000000001922 7.129739692551696
    vertex 280.64824769255216 0.009797000000000755 4.87026030744747
    vertex 280.64824769255216 0.009797000000000514 7.129739692551741
  endloop
endfacet
facet normal -5.291588104000749e-16 -1.0 2.9135412452719884e-15
  outer loop
    vertex 280.64824769255216 0.009797000000000755 4.87026030744747
    vertex 278.3887683074477 0.009797000000001922 7.129739692551696
    vertex 278.3887683074477 0.009797000000000755 4.870260307447425
  endloop
endfacet
facet normal 5.595171592357344e-17 -1.0 2.36375400985025e-15
  outer loop
    vertex 180.3185079999999 0.009796999999989484 4.800000000000048
    vertex 182.7185079999998 0.009796999999997684 7.200000000000066
    vertex 180.31850799999978 0.009796999999997684 7.200000000000071
  endloop
endfacet
facet normal 5.595171592357344e-17 -1.0 2.36375400985025e-15
  outer loop
    vertex 182.7185079999998 0.009796999999997684 7.200000000000066
    vertex 180.3185079999999 0.009796999999989484 4.800000000000048
    vertex 182.71850799999987 0.009796999999989484 4.800000000000048
  endloop
endfacet
facet normal -0.8788534316656984 -0.47709186290422667 1.4582222083073175e-15
  outer loop
    vertex 180.31850799999978 0.009796999999997684 7.200000000000071
    vertex 176.51850799999997 7.009796999999998 1.0000000000000433
    vertex 180.3185079999999 0.009796999999989484 4.800000000000048
  endloop
endfacet
facet normal -0.8788534316656984 -0.47709186290422667 1.4582222083073175e-15
  outer loop
    vertex 176.51850799999997 7.009796999999998 1.0000000000000433
    vertex 180.31850799999978 0.009796999999997684 7.200000000000071
    vertex 176.51850799999997 7.009797000000003 11.000000000000025
  endloop
endfacet
facet normal -1.4360032467589232e-15 -0.47709186290423955 -0.8788534316656916
  outer loop
    vertex 182.71850799999987 0.009796999999989484 4.800000000000048
    vertex 176.51850799999997 7.009796999999998 1.0000000000000433
    vertex 186.51850799999997 7.009796999999998 0.9999999999999756
  endloop
endfacet
facet normal -1.4360032467589232e-15 -0.47709186290423955 -0.8788534316656916
  outer loop
    vertex 176.51850799999997 7.009796999999998 1.0000000000000433
    vertex 182.71850799999987 0.009796999999989484 4.800000000000048
    vertex 180.3185079999999 0.009796999999989484 4.800000000000048
  endloop
endfacet
facet normal 0.8788534316656902 -0.47709186290424194 -1.4116585231958323e-15
  outer loop
    vertex 186.51850799999997 7.009796999999998 0.9999999999999756
    vertex 182.7185079999998 0.009796999999997684 7.200000000000066
    vertex 182.71850799999987 0.009796999999989484 4.800000000000048
  endloop
endfacet
facet normal 0.8788534316656902 -0.47709186290424194 -1.4116585231958323e-15
  outer loop
    vertex 182.7185079999998 0.009796999999997684 7.200000000000066
    vertex 186.51850799999997 7.009796999999998 0.9999999999999756
    vertex 186.51850799999997 7.009797000000003 11.000000000000009
  endloop
endfacet
facet normal 1.4385275891517284e-15 -0.47709186290422917 0.8788534316656972
  outer loop
    vertex 176.51850799999997 7.009797000000003 11.000000000000025
    vertex 182.7185079999998 0.009796999999997684 7.200000000000066
    vertex 186.51850799999997 7.009797000000003 11.000000000000009
  endloop
endfacet
facet normal 1.4385275891517284e-15 -0.47709186290422917 0.8788534316656972
  outer loop
    vertex 182.7185079999998 0.009796999999997684 7.200000000000066
    vertex 176.51850799999997 7.009797000000003 11.000000000000025
    vertex 180.31850799999978 0.009796999999997684 7.200000000000071
  endloop
endfacet
facet normal 1.6375789613221059e-15 -1.0742729457325322e-16 1.0
  outer loop
    vertex 178.51850799999994 214.00979700000002 3.000000000000062
    vertex 282.51850799999994 10.009796999999997 2.9999999999998703
    vertex 282.51850799999994 214.00979700000002 2.9999999999998366
  endloop
endfacet
facet normal 1.6375789613221059e-15 -1.0742729457325322e-16 1.0
  outer loop
    vertex 282.51850799999994 10.009796999999997 2.9999999999998703
    vertex 178.51850799999994 214.00979700000002 3.000000000000062
    vertex 178.51850799999994 10.009796999999995 3.0000000000000395
  endloop
endfacet
facet normal 1.5350347255930914e-15 -5.3713647286626596e-17 1.0
  outer loop
    vertex 285.51850800000005 217.009797 52.999999999999844
    vertex 282.51850800000005 214.00979700000002 52.99999999999986
    vertex 285.51850800000005 7.0097969999999945 52.99999999999982
  endloop
endfacet
facet normal 1.5350347255930914e-15 -5.3713647286626596e-17 1.0
  outer loop
    vertex 282.51850800000005 214.00979700000002 52.99999999999986
    vertex 285.51850800000005 217.009797 52.999999999999844
    vertex 175.51850800000005 217.009797 53.00000000000001
  endloop
endfacet
facet normal 1.5350347255930914e-15 -5.3713647286626596e-17 1.0
  outer loop
    vertex 282.51850800000005 214.00979700000002 52.99999999999986
    vertex 175.51850800000005 217.009797 53.00000000000001
    vertex 178.51850800000005 214.00979700000002 53.00000000000003
  endloop
endfacet
facet normal 1.5350347255930914e-15 -5.3713647286626596e-17 1.0
  outer loop
    vertex 178.51850800000005 214.00979700000002 53.00000000000003
    vertex 175.51850800000005 217.009797 53.00000000000001
    vertex 178.51850800000005 10.009796999999995 53.00000000000003
  endloop
endfacet
facet normal 1.5350347255930914e-15 -5.3713647286626596e-17 1.0
  outer loop
    vertex 285.51850800000005 7.0097969999999945 52.99999999999982
    vertex 282.51850800000005 10.009796999999995 52.99999999999984
    vertex 175.51850800000005 7.0097969999999945 53.00000000000001
  endloop
endfacet
facet normal 1.5350347255930914e-15 -5.3713647286626596e-17 1.0
  outer loop
    vertex 282.51850800000005 10.009796999999995 52.99999999999984
    vertex 285.51850800000005 7.0097969999999945 52.99999999999982
    vertex 282.51850800000005 214.00979700000002 52.99999999999986
  endloop
endfacet
facet normal 1.5350347255930914e-15 -5.3713647286626596e-17 1.0
  outer loop
    vertex 175.51850800000005 7.0097969999999945 53.00000000000001
    vertex 282.51850800000005 10.009796999999995 52.99999999999984
    vertex 178.51850800000005 10.009796999999995 53.00000000000003
  endloop
endfacet
facet normal 1.5350347255930914e-15 -5.3713647286626596e-17 1.0
  outer loop
    vertex 175.51850800000005 7.0097969999999945 53.00000000000001
    vertex 178.51850800000005 10.009796999999995 53.00000000000003
    vertex 175.51850800000005 217.009797 53.00000000000001
  endloop
endfacet
facet normal 1.0 2.4276565736023664e-31 -1.5350347255930914e-15
  outer loop
    vertex 285.51850799999994 217.009797 -1.5791812302268225e-13
    vertex 285.51850800000005 7.0097969999999945 52.99999999999982
    vertex 285.51850799999994 7.009796999999998 -1.8047785488306544e-13
  endloop
endfacet
facet normal 1.0 2.4276565736023664e-31 -1.5350347255930914e-15
  outer loop
    vertex 285.51850800000005 7.0097969999999945 52.99999999999982
    vertex 285.51850799999994 217.009797 -1.5791812302268225e-13
    vertex 285.51850800000005 217.009797 52.999999999999844
  endloop
endfacet
facet normal 8.395999508122913e-32 1.0 5.529346044211563e-17
  outer loop
    vertex 282.51850800000005 214.00979700000002 52.99999999999986
    vertex 178.51850800000005 214.00979700000002 59.00000000000003
    vertex 282.51850800000005 214.00979700000002 58.999999999999844
  endloop
endfacet
facet normal 8.395999508122913e-32 1.0 5.529346044211563e-17
  outer loop
    vertex 178.51850800000005 214.00979700000002 59.00000000000003
    vertex 282.51850800000005 214.00979700000002 52.99999999999986
    vertex 178.51850800000005 214.00979700000002 53.00000000000003
  endloop
endfacet
facet normal -1.0 -1.2316099784104838e-47 1.6269037399314791e-15
  outer loop
    vertex 178.51850800000005 214.00979700000002 59.00000000000003
    vertex 178.51850800000005 10.009796999999995 53.00000000000003
    vertex 178.51850800000005 10.009796999999995 59.00000000000003
  endloop
endfacet
facet normal -1.0 -1.2316099784104838e-47 1.6269037399314791e-15
  outer loop
    vertex 178.51850800000005 10.009796999999995 53.00000000000003
    vertex 178.51850800000005 214.00979700000002 59.00000000000003
    vertex 178.51850800000005 214.00979700000002 53.00000000000003
  endloop
endfacet
facet normal -9.595428009283331e-32 -1.0 -5.529346044211563e-17
  outer loop
    vertex 178.51850800000005 10.009796999999995 53.00000000000003
    vertex 282.51850800000005 10.009796999999995 58.999999999999844
    vertex 178.51850800000005 10.009796999999995 59.00000000000003
  endloop
endfacet
facet normal -9.595428009283331e-32 -1.0 -5.529346044211563e-17
  outer loop
    vertex 282.51850800000005 10.009796999999995 58.999999999999844
    vertex 178.51850800000005 10.009796999999995 53.00000000000003
    vertex 282.51850800000005 10.009796999999995 52.99999999999984
  endloop
endfacet
facet normal 1.0 1.7991427517406247e-31 -1.6269037399314791e-15
  outer loop
    vertex 282.51850800000005 214.00979700000002 52.99999999999986
    vertex 282.51850800000005 10.009796999999995 58.999999999999844
    vertex 282.51850800000005 10.009796999999995 52.99999999999984
  endloop
endfacet
facet normal 1.0 1.7991427517406247e-31 -1.6269037399314791e-15
  outer loop
    vertex 282.51850800000005 10.009796999999995 58.999999999999844
    vertex 282.51850800000005 214.00979700000002 52.99999999999986
    vertex 282.51850800000005 214.00979700000002 58.999999999999844
  endloop
endfacet
facet normal 1.6269037399314791e-15 -5.529346044211562e-17 1.0
  outer loop
    vertex 282.51850800000005 214.00979700000002 58.999999999999844
    vertex 280.51850800000005 212.00979700000002 58.99999999999988
    vertex 282.51850800000005 10.009796999999995 58.999999999999844
  endloop
endfacet
facet normal 1.6269037399314791e-15 -5.529346044211562e-17 1.0
  outer loop
    vertex 280.51850800000005 212.00979700000002 58.99999999999988
    vertex 282.51850800000005 214.00979700000002 58.999999999999844
    vertex 178.51850800000005 214.00979700000002 59.00000000000003
  endloop
endfacet
facet normal 1.6269037399314791e-15 -5.529346044211562e-17 1.0
  outer loop
    vertex 280.51850800000005 212.00979700000002 58.99999999999988
    vertex 178.51850800000005 214.00979700000002 59.00000000000003
    vertex 180.51850800000003 212.00979700000002 59.00000000000003
  endloop
endfacet
facet normal 1.6269037399314791e-15 -5.529346044211562e-17 1.0
  outer loop
    vertex 180.51850800000003 212.00979700000002 59.00000000000003
    vertex 178.51850800000005 214.00979700000002 59.00000000000003
    vertex 180.51850800000003 12.009796999999994 59.00000000000003
  endloop
endfacet
facet normal 1.6269037399314791e-15 -5.529346044211562e-17 1.0
  outer loop
    vertex 282.51850800000005 10.009796999999995 58.999999999999844
    vertex 280.51850800000005 12.009796999999994 58.99999999999986
    vertex 178.51850800000005 10.009796999999995 59.00000000000003
  endloop
endfacet
facet normal 1.6269037399314791e-15 -5.529346044211562e-17 1.0
  outer loop
    vertex 280.51850800000005 12.009796999999994 58.99999999999986
    vertex 282.51850800000005 10.009796999999995 58.999999999999844
    vertex 280.51850800000005 212.00979700000002 58.99999999999988
  endloop
endfacet
facet normal 1.6269037399314791e-15 -5.529346044211562e-17 1.0
  outer loop
    vertex 178.51850800000005 10.009796999999995 59.00000000000003
    vertex 280.51850800000005 12.009796999999994 58.99999999999986
    vertex 180.51850800000003 12.009796999999994 59.00000000000003
  endloop
endfacet
facet normal 1.6269037399314791e-15 -5.529346044211562e-17 1.0
  outer loop
    vertex 178.51850800000005 10.009796999999995 59.00000000000003
    vertex 180.51850800000003 12.009796999999994 59.00000000000003
    vertex 178.51850800000005 214.00979700000002 59.00000000000003
  endloop
endfacet
facet normal 0.9907558162850715 2.1974511627552583e-18 -0.13565733484519632
  outer loop
    vertex 178.7385079999999 213.74979699999977 46.00000000000006
    vertex 180.51850800000003 12.009796999999994 59.00000000000003
    vertex 178.7385079999999 10.229797000000003 46.00000000000005
  endloop
endfacet
facet normal 0.9907558162850715 2.1974511627552583e-18 -0.13565733484519632
  outer loop
    vertex 180.51850800000003 12.009796999999994 59.00000000000003
    vertex 178.7385079999999 213.74979699999977 46.00000000000006
    vertex 180.51850800000003 212.00979700000002 59.00000000000003
  endloop
endfacet
facet normal 1.0 -1.7399971985643894e-31 1.5739347809569654e-15
  outer loop
    vertex 178.51850799999994 214.00979700000002 3.000000000000062
    vertex 178.51850799999988 10.009797000000004 46.00000000000005
    vertex 178.51850799999994 10.009796999999995 3.0000000000000395
  endloop
endfacet
facet normal 1.0 -1.7399971985643894e-31 1.5739347809569654e-15
  outer loop
    vertex 178.51850799999988 10.009797000000004 46.00000000000005
    vertex 178.51850799999994 214.00979700000002 3.000000000000062
    vertex 178.51850799999988 214.0097969999998 46.00000000000007
  endloop
endfacet
facet normal -2.5631023376470222e-14 5.539111357729402e-17 -1.0
  outer loop
    vertex 178.51850799999988 10.009797000000004 46.00000000000005
    vertex 178.7385079999999 213.74979699999977 46.00000000000006
    vertex 178.7385079999999 10.229797000000003 46.00000000000005
  endloop
endfacet
facet normal -2.5631023376470222e-14 5.539111357729402e-17 -1.0
  outer loop
    vertex 178.7385079999999 213.74979699999977 46.00000000000006
    vertex 178.51850799999988 10.009797000000004 46.00000000000005
    vertex 178.51850799999988 214.0097969999998 46.00000000000007
  endloop
endfacet
facet normal 2.3748388930819243e-14 1.2460555390960431e-16 -1.0
  outer loop
    vertex 282.27850800000004 10.229797000000001 45.99999999999985
    vertex 282.51850800000005 214.0097969999998 45.99999999999988
    vertex 282.51850800000005 10.009797000000004 45.999999999999844
  endloop
endfacet
facet normal 2.3748388930819243e-14 1.2460555390960431e-16 -1.0
  outer loop
    vertex 282.51850800000005 214.0097969999998 45.99999999999988
    vertex 282.27850800000004 10.229797000000001 45.99999999999985
    vertex 282.27850800000004 213.74979699999977 45.999999999999865
  endloop
endfacet
facet normal -1.3557531166095878e-17 1.0 -1.311612317464139e-16
  outer loop
    vertex 282.51850800000005 10.009797000000004 45.999999999999844
    vertex 178.51850799999994 10.009796999999995 3.0000000000000395
    vertex 178.51850799999988 10.009797000000004 46.00000000000005
  endloop
endfacet
facet normal -1.3557531166095878e-17 1.0 -1.311612317464139e-16
  outer loop
    vertex 178.51850799999994 10.009796999999995 3.0000000000000395
    vertex 282.51850800000005 10.009797000000004 45.999999999999844
    vertex 282.51850799999994 10.009796999999997 2.9999999999998703
  endloop
endfacet
facet normal -1.0 -5.676747970471596e-32 2.098579707942621e-15
  outer loop
    vertex 282.51850800000005 10.009797000000004 45.999999999999844
    vertex 282.51850799999994 214.00979700000002 2.9999999999998366
    vertex 282.51850799999994 10.009796999999997 2.9999999999998703
  endloop
endfacet
facet normal -1.0 -5.676747970471596e-32 2.098579707942621e-15
  outer loop
    vertex 282.51850799999994 214.00979700000002 2.9999999999998366
    vertex 282.51850800000005 10.009797000000004 45.999999999999844
    vertex 282.51850800000005 214.0097969999998 45.99999999999988
  endloop
endfacet
facet normal -0.990959591058538 1.3138161187992788e-17 -0.13416068309715423
  outer loop
    vertex 280.51850800000005 12.009796999999994 58.99999999999986
    vertex 282.27850800000004 213.74979699999977 45.999999999999865
    vertex 282.27850800000004 10.229797000000001 45.99999999999985
  endloop
endfacet
facet normal -0.990959591058538 1.3138161187992788e-17 -0.13416068309715423
  outer loop
    vertex 282.27850800000004 213.74979699999977 45.999999999999865
    vertex 280.51850800000005 12.009796999999994 58.99999999999986
    vertex 280.51850800000005 212.00979700000002 58.99999999999988
  endloop
endfacet
facet normal -1.9838372573002995e-15 1.2727855045340493e-14 -1.0
  outer loop
    vertex 178.51850799999988 10.009797000000004 46.00000000000005
    vertex 282.27850800000004 10.229797000000001 45.99999999999985
    vertex 282.51850800000005 10.009797000000004 45.999999999999844
  endloop
endfacet
facet normal -1.9838372573002995e-15 1.2727855045340493e-14 -1.0
  outer loop
    vertex 282.27850800000004 10.229797000000001 45.99999999999985
    vertex 178.51850799999988 10.009797000000004 46.00000000000005
    vertex 178.7385079999999 10.229797000000003 46.00000000000005
  endloop
endfacet
facet normal -2.416588628921932e-16 0.9907558162850728 -0.13565733484518644
  outer loop
    vertex 280.51850800000005 12.009796999999994 58.99999999999986
    vertex 178.7385079999999 10.229797000000003 46.00000000000005
    vertex 180.51850800000003 12.009796999999994 59.00000000000003
  endloop
endfacet
facet normal -2.416588628921932e-16 0.9907558162850728 -0.13565733484518644
  outer loop
    vertex 178.7385079999999 10.229797000000003 46.00000000000005
    vertex 280.51850800000005 12.009796999999994 58.99999999999986
    vertex 282.27850800000004 10.229797000000001 45.99999999999985
  endloop
endfacet
facet normal -2.274259385052832e-16 -0.9911611869543016 -0.13266311271540418
  outer loop
    vertex 180.51850800000003 212.00979700000002 59.00000000000003
    vertex 282.27850800000004 213.74979699999977 45.999999999999865
    vertex 280.51850800000005 212.00979700000002 58.99999999999988
  endloop
endfacet
facet normal -2.274259385052832e-16 -0.9911611869543016 -0.13266311271540418
  outer loop
    vertex 282.27850800000004 213.74979699999977 45.999999999999865
    vertex 180.51850800000003 212.00979700000002 59.00000000000003
    vertex 178.7385079999999 213.74979699999977 46.00000000000006
  endloop
endfacet
facet normal -1.8479018867449997e-15 4.3455172880995615e-14 -1.0
  outer loop
    vertex 282.27850800000004 213.74979699999977 45.999999999999865
    vertex 178.51850799999988 214.0097969999998 46.00000000000007
    vertex 282.51850800000005 214.0097969999998 45.99999999999988
  endloop
endfacet
facet normal -1.8479018867449997e-15 4.3455172880995615e-14 -1.0
  outer loop
    vertex 178.51850799999988 214.0097969999998 46.00000000000007
    vertex 282.27850800000004 213.74979699999977 45.999999999999865
    vertex 178.7385079999999 213.74979699999977 46.00000000000006
  endloop
endfacet
facet normal -1.0241467235427118e-29 -1.0 -5.2464492698565504e-15
  outer loop
    vertex 178.51850799999994 214.00979700000002 3.000000000000062
    vertex 282.51850800000005 214.0097969999998 45.99999999999988
    vertex 178.51850799999988 214.0097969999998 46.00000000000007
  endloop
endfacet
facet normal -1.0241467235427118e-29 -1.0 -5.2464492698565504e-15
  outer loop
    vertex 282.51850800000005 214.0097969999998 45.99999999999988
    vertex 178.51850799999994 214.00979700000002 3.000000000000062
    vertex 282.51850799999994 214.00979700000002 2.9999999999998366
  endloop
endfacet
endsolid CaseTelevisorne
